<svg xmlns="http://www.w3.org/2000/svg" viewBox="0 0 680 520" role="img" aria-labelledby="title desc">
  <title id="title">Documentos, IA y auditoria</title>
  <desc id="desc">Ilustracion con expediente digital, modelo de IA y cadena blockchain.</desc>
  <rect width="680" height="520" fill="#f8fafc"/>
  <g stroke="#d9e2ec" opacity=".7">
    <path d="M0 86h680M0 172h680M0 258h680M0 344h680M0 430h680"/>
    <path d="M86 0v520M172 0v520M258 0v520M344 0v520M430 0v520M516 0v520M602 0v520"/>
  </g>
  <rect x="72" y="70" width="226" height="310" rx="16" fill="#ffffff" stroke="#d9e2ec"/>
  <path d="M116 118h104M116 152h134M116 186h84" stroke="#536276" stroke-width="10" stroke-linecap="round"/>
  <rect x="116" y="226" width="138" height="86" rx="10" fill="#ecfdf5" stroke="#22c55e"/>
  <path d="M146 270l24 20 54-58" stroke="#22c55e" stroke-width="10" stroke-linecap="round" stroke-linejoin="round" fill="none"/>
  <rect x="112" y="342" width="152" height="18" rx="9" fill="#ccfbf1"/>
  <g transform="translate(340 86)">
    <rect width="226" height="164" rx="16" fill="#172033"/>
    <circle cx="72" cy="82" r="42" fill="#2dd4bf" opacity=".16"/>
    <circle cx="72" cy="82" r="8" fill="#2dd4bf"/>
    <circle cx="44" cy="54" r="7" fill="#60a5fa"/>
    <circle cx="102" cy="52" r="7" fill="#60a5fa"/>
    <circle cx="112" cy="112" r="7" fill="#60a5fa"/>
    <circle cx="40" cy="116" r="7" fill="#60a5fa"/>
    <path d="M72 82L44 54M72 82l30-30M72 82l40 30M72 82l-32 34" stroke="#94a3b8" stroke-width="4"/>
    <path d="M144 62h46M144 86h34M144 110h58" stroke="#cbd5e1" stroke-width="8" stroke-linecap="round"/>
  </g>
  <g transform="translate(318 300)">
    <rect width="282" height="88" rx="14" fill="#ffffff" stroke="#d9e2ec"/>
    <rect x="26" y="28" width="48" height="32" rx="7" fill="#dbeafe" stroke="#2563eb"/>
    <rect x="112" y="28" width="48" height="32" rx="7" fill="#ccfbf1" stroke="#0f766e"/>
    <rect x="198" y="28" width="48" height="32" rx="7" fill="#fef3c7" stroke="#f59e0b"/>
    <path d="M74 44h38M160 44h38" stroke="#536276" stroke-width="5" stroke-linecap="round"/>
    <circle cx="93" cy="44" r="5" fill="#536276"/>
    <circle cx="179" cy="44" r="5" fill="#536276"/>
  </g>
  <path d="M298 226c34 0 32-58 58-58M298 318c36 0 24 26 56 26" fill="none" stroke="#0f766e" stroke-width="5" stroke-linecap="round" stroke-dasharray="9 11"/>
</svg>
