<svg xmlns="http://www.w3.org/2000/svg" viewBox="0 0 680 520" role="img" aria-labelledby="title desc">
  <title id="title">Flujo operativo de activos</title>
  <desc id="desc">Secuencia de inventario, asignacion, traslado, expediente y auditoria.</desc>
  <rect width="680" height="520" fill="#ffffff"/>
  <defs>
    <linearGradient id="accent" x1="0" x2="1">
      <stop offset="0" stop-color="#0f766e"/>
      <stop offset="1" stop-color="#2563eb"/>
    </linearGradient>
  </defs>
  <rect x="44" y="48" width="592" height="424" rx="18" fill="#f8fafc" stroke="#d9e2ec"/>
  <path d="M138 156h402M540 156v208H138V156" fill="none" stroke="#b8c7d9" stroke-width="5" stroke-linecap="round" stroke-linejoin="round" stroke-dasharray="10 12"/>
  <g font-family="Inter, Arial, sans-serif" font-size="15" font-weight="700">
    <g transform="translate(78 100)">
      <rect width="128" height="112" rx="14" fill="#ecfdf5" stroke="#22c55e"/>
      <circle cx="64" cy="39" r="22" fill="#22c55e"/>
      <path d="M50 39h28M64 25v28" stroke="#fff" stroke-width="6" stroke-linecap="round"/>
      <text x="64" y="83" text-anchor="middle" fill="#172033">Inventario</text>
    </g>
    <g transform="translate(276 100)">
      <rect width="128" height="112" rx="14" fill="#eff6ff" stroke="#2563eb"/>
      <circle cx="64" cy="39" r="22" fill="#2563eb"/>
      <path d="M50 40h28M78 40l-10-10M78 40l-10 10" stroke="#fff" stroke-width="5" stroke-linecap="round" stroke-linejoin="round"/>
      <text x="64" y="83" text-anchor="middle" fill="#172033">Traslado</text>
    </g>
    <g transform="translate(474 100)">
      <rect width="128" height="112" rx="14" fill="#fffbeb" stroke="#f59e0b"/>
      <circle cx="64" cy="39" r="22" fill="#f59e0b"/>
      <path d="M54 50l20-20M58 29h13v13" stroke="#fff" stroke-width="5" stroke-linecap="round" stroke-linejoin="round"/>
      <text x="64" y="83" text-anchor="middle" fill="#172033">Baja</text>
    </g>
    <g transform="translate(276 308)">
      <rect width="128" height="112" rx="14" fill="#f0fdfa" stroke="#0f766e"/>
      <circle cx="64" cy="39" r="22" fill="#0f766e"/>
      <path d="M52 43l8 8 18-24" stroke="#fff" stroke-width="6" stroke-linecap="round" stroke-linejoin="round" fill="none"/>
      <text x="64" y="83" text-anchor="middle" fill="#172033">Auditoria</text>
    </g>
  </g>
  <g fill="none" stroke="url(#accent)" stroke-width="5" stroke-linecap="round" stroke-linejoin="round">
    <path d="M207 156h58"/>
    <path d="M251 142l14 14-14 14"/>
    <path d="M405 156h58"/>
    <path d="M449 142l14 14-14 14"/>
    <path d="M538 214v80c0 39-32 70-70 70h-52"/>
    <path d="M430 350l-14 14 14 14"/>
    <path d="M276 364h-74c-38 0-70-31-70-70v-70"/>
    <path d="M118 238l14-14 14 14"/>
  </g>
</svg>
